<svg xmlns="http://www.w3.org/2000/svg" width="55.042" height="71.301" viewBox="0 0 55.042 71.301">
  <path id="search-svgrepo-com" d="M34.059,3.512a26.186,26.186,0,0,0-9.585,35.771A26.162,26.162,0,0,0,55.818,50.9L67.6,71.3,76,66.451l-11.778-20.4A26.19,26.19,0,0,0,69.83,13.1,26.176,26.176,0,0,0,34.059,3.512ZM61.431,17.946A16.493,16.493,0,0,1,47.172,42.681a16.553,16.553,0,0,1-14.3-8.247A16.493,16.493,0,0,1,47.132,9.7,16.552,16.552,0,0,1,61.431,17.946Z" transform="translate(-20.955)" fill="#fff"/>
</svg>
